<svg xmlns="http://www.w3.org/2000/svg" width="300" height="46" viewBox="0 0 300 46">
  <g id="form" transform="translate(-836 -659)">
    <g id="base" transform="translate(836 659)" fill="none" stroke="#f1f3f4" stroke-width="2">
      <rect width="300" height="46" rx="4" stroke="none"/>
      <rect x="1" y="1" width="298" height="44" rx="3" fill="none"/>
    </g>
    <text id="Voucher_code" data-name="Voucher code" transform="translate(851 687)" fill="#262626" font-size="16" font-family="Helvetica" letter-spacing="0.025em" opacity="0.5"><tspan x="0" y="0">Voucher code</tspan></text>
    <g id="btn" transform="translate(534 -715)">
      <path id="Rectangle_37" data-name="Rectangle 37" d="M0,0H114a4,4,0,0,1,4,4V42a4,4,0,0,1-4,4H0a0,0,0,0,1,0,0V0A0,0,0,0,1,0,0Z" transform="translate(484 1374)" fill="#33a0ff"/>
      <text id="Redeem" transform="translate(543 1401.5)" fill="#fff" font-size="14" font-family="Helvetica" letter-spacing="0.025em"><tspan x="-27.333" y="0">Redeem</tspan></text>
    </g>
  </g>
</svg>
