<svg xmlns="http://www.w3.org/2000/svg" width="150" height="46" viewBox="0 0 150 46">
  <g id="btn" transform="translate(-468 -1374)">
    <rect id="Rectangle_37" data-name="Rectangle 37" width="150" height="46" rx="4" transform="translate(468 1374)" fill="#33a0ff" opacity="0.1"/>
    <path id="cart_2" d="M428.932,523a1.993,1.993,0,0,0,1.952-1.608l1-5A2,2,0,0,0,429.927,514h-9.956v-1a1,1,0,0,0-1-1H416.98a1,1,0,0,0,0,2h1v10a2,2,0,1,0,1.991,2h6.969a1.992,1.992,0,1,0,1.992-2h-8.961v-1Zm1-7-1,5h-8.961v-5h9.956Z" transform="translate(72.029 877)" fill="#33a0ff" fill-rule="evenodd"/>
    <text id="Add_To_Cart" data-name="Add To Cart" transform="translate(518.5 1401.5)" fill="#33a0ff" font-size="14" font-family="Helvetica" letter-spacing="0.025em"><tspan x="0" y="0">Add To Cart</tspan></text>
  </g>
</svg>
