<svg xmlns="http://www.w3.org/2000/svg" xmlns:xlink="http://www.w3.org/1999/xlink" width="158" height="98" viewBox="0 0 158 98">
  <defs>
    <clipPath id="clip-path">
      <rect width="72.409" height="10" fill="none"/>
    </clipPath>
  </defs>
  <g id="Group_29" data-name="Group 29" transform="translate(-703 -1373)">
    <text id="Apple_Macbook_Pro" data-name="Apple Macbook Pro" transform="translate(703 1387)" fill="#22262a" font-size="18" font-family="Helvetica"><tspan x="0" y="0">Apple Macbook Pro</tspan></text>
    <g id="Group_7" data-name="Group 7" transform="translate(212 -149)">
      <text id="_499" data-name="$499" transform="translate(510 1616)" fill="#ff4858" font-size="16" font-family="Helvetica" letter-spacing="0.025em"><tspan x="-18.397" y="0">$499</tspan></text>
      <text id="_599" data-name="$599" transform="translate(559 1616)" fill="#c1c8ce" font-size="16" font-family="Helvetica" letter-spacing="0.025em"><tspan x="-18.397" y="0">$599</tspan></text>
      <line id="Line_1" data-name="Line 1" x2="39" transform="translate(539.5 1611.5)" fill="none" stroke="#5d656b" stroke-width="1"/>
    </g>
    <g id="rate" transform="translate(703 1411.753)" clip-path="url(#clip-path)">
      <path id="star" d="M512.193,1638.648l-3.355,2.326.985,3.78-3.26-2.283-3.47,2.162,1.34-3.738-3.129-2.443,4.088-.027,1.536-3.672,1.186,3.721Z" transform="translate(-470.543 -1634.753)" fill="#ffc600"/>
      <path id="star_copy_3" data-name="star copy 3" d="M496.812,1638.648l-3.355,2.326.985,3.78-3.26-2.283-3.47,2.162,1.34-3.738-3.129-2.443,4.088-.027,1.536-3.672,1.186,3.721Z" transform="translate(-470.543 -1634.753)" fill="#ffc600"/>
      <path id="star_copy_4" data-name="star copy 4" d="M481.432,1638.648l-3.355,2.326.985,3.78-3.26-2.283-3.47,2.162,1.34-3.738-3.129-2.443,4.088-.027,1.536-3.672,1.186,3.721Z" transform="translate(-470.543 -1634.753)" fill="#ffc600"/>
      <path id="star_copy" data-name="star copy" d="M527.572,1638.648l-3.355,2.326.985,3.78-3.26-2.283-3.47,2.162,1.34-3.738-3.129-2.443,4.088-.027,1.536-3.672,1.186,3.721Z" transform="translate(-470.543 -1634.753)" fill="#ffc600"/>
      <path id="star_copy_2" data-name="star copy 2" d="M542.953,1638.648l-3.355,2.326.985,3.78-3.26-2.283-3.47,2.162,1.34-3.738-3.129-2.443,4.088-.027,1.536-3.672,1.186,3.721Z" transform="translate(-470.543 -1634.753)" fill="#c1c8ce"/>
    </g>
  </g>
</svg>
